STARTFONT 2.1
COMMENT
COMMENT Izumi Bitmap Font Series
COMMENT   Izumi Univers 16dot ANK Font
COMMENT       for JIS X 0201:1976  (1st, March, 2007)
COMMENT
COMMENT  Designed by
COMMENT            Yu=Izumi, 2001-2007.
COMMENT
FONT -Izumi-Univers-Medium-R-Normal--16-150-75-75-C-80-JISX0201.1976-0
SIZE 16 75 75
FONTBOUNDINGBOX 8 16 0 -2
STARTPROPERTIES 18
FONTNAME_REGISTRY ""
FOUNDRY "Izumi"
FAMILY_NAME "Univers"
WEIGHT_NAME "Medium"
SLANT "R"
SETWIDTH_NAME "Normal"
ADD_STYLE_NAME ""
PIXEL_SIZE 16
POINT_SIZE 150
RESOLUTION_X 75
RESOLUTION_Y 75
SPACING "C"
AVERAGE_WIDTH 80
CHARSET_REGISTRY "JISX0201.1976"
CHARSET_ENCODING "0"
DEFAULT_CHAR 0
FONT_DESCENT 2
FONT_ASCENT 14
ENDPROPERTIES
CHARS 256
STARTCHAR 0000
ENCODING 0
SWIDTH 823 0
DWIDTH 8 0
BBX 8 16 0 -2
BITMAP
00
00
00
00
00
00
00
00
00
00
00
00
00
00
00
00
ENDCHAR
STARTCHAR 0001
ENCODING 1
SWIDTH 823 0
DWIDTH 8 0
BBX 8 16 0 -2
BITMAP
00
00
00
00
00
00
1f
10
17
14
14
14
14
14
14
14
ENDCHAR
STARTCHAR 0002
ENCODING 2
SWIDTH 823 0
DWIDTH 8 0
BBX 8 16 0 -2
BITMAP
00
00
00
00
00
00
fc
04
f4
14
14
14
14
14
14
14
ENDCHAR
STARTCHAR 0003
ENCODING 3
SWIDTH 823 0
DWIDTH 8 0
BBX 8 16 0 -2
BITMAP
14
14
14
14
14
14
17
10
1f
00
00
00
00
00
00
00
ENDCHAR
STARTCHAR 0004
ENCODING 4
SWIDTH 823 0
DWIDTH 8 0
BBX 8 16 0 -2
BITMAP
14
14
14
14
14
14
f4
04
fc
00
00
00
00
00
00
00
ENDCHAR
STARTCHAR 0005
ENCODING 5
SWIDTH 823 0
DWIDTH 8 0
BBX 8 16 0 -2
BITMAP
14
14
14
14
14
14
14
14
14
14
14
14
14
14
14
14
ENDCHAR
STARTCHAR 0006
ENCODING 6
SWIDTH 823 0
DWIDTH 8 0
BBX 8 16 0 -2
BITMAP
00
00
00
00
00
00
ff
00
ff
00
00
00
00
00
00
00
ENDCHAR
STARTCHAR 0007
ENCODING 7
SWIDTH 823 0
DWIDTH 8 0
BBX 8 16 0 -2
BITMAP
00
00
00
08
08
08
08
08
08
08
2a
2a
1c
1c
08
08
ENDCHAR
STARTCHAR 0008
ENCODING 8
SWIDTH 823 0
DWIDTH 8 0
BBX 8 16 0 -2
BITMAP
00
00
00
00
00
00
00
00
00
00
00
00
00
00
00
00
ENDCHAR
STARTCHAR 0009
ENCODING 9
SWIDTH 823 0
DWIDTH 8 0
BBX 8 16 0 -2
BITMAP
00
00
00
00
18
24
24
42
42
42
42
24
24
18
00
00
ENDCHAR
STARTCHAR 000a
ENCODING 10
SWIDTH 823 0
DWIDTH 8 0
BBX 8 16 0 -2
BITMAP
00
00
00
00
00
00
00
00
00
00
00
00
00
00
00
00
ENDCHAR
STARTCHAR 000b
ENCODING 11
SWIDTH 823 0
DWIDTH 8 0
BBX 8 16 0 -2
BITMAP
00
00
00
00
7f
41
63
63
55
49
49
55
63
63
41
7f
ENDCHAR
STARTCHAR 000c
ENCODING 12
SWIDTH 823 0
DWIDTH 8 0
BBX 8 16 0 -2
BITMAP
00
00
00
00
00
00
00
00
00
00
00
00
00
00
00
00
ENDCHAR
STARTCHAR 000d
ENCODING 13
SWIDTH 823 0
DWIDTH 8 0
BBX 8 16 0 -2
BITMAP
00
00
00
00
00
00
00
00
00
00
00
00
00
00
00
00
ENDCHAR
STARTCHAR 000e
ENCODING 14
SWIDTH 823 0
DWIDTH 8 0
BBX 8 16 0 -2
BITMAP
00
00
00
00
7f
7f
7f
7f
7f
7f
7f
7f
7f
7f
7f
7f
ENDCHAR
STARTCHAR 000f
ENCODING 15
SWIDTH 823 0
DWIDTH 8 0
BBX 8 16 0 -2
BITMAP
00
00
49
49
2a
14
14
22
63
22
14
14
2a
49
49
00
ENDCHAR
STARTCHAR 0010
ENCODING 16
SWIDTH 823 0
DWIDTH 8 0
BBX 8 16 0 -2
BITMAP
14
14
14
14
14
14
f7
00
f7
14
14
14
14
14
14
14
ENDCHAR
STARTCHAR 0011
ENCODING 17
SWIDTH 823 0
DWIDTH 8 0
BBX 8 16 0 -2
BITMAP
00
00
00
00
00
00
00
00
00
00
00
00
00
00
00
00
ENDCHAR
STARTCHAR 0012
ENCODING 18
SWIDTH 823 0
DWIDTH 8 0
BBX 8 16 0 -2
BITMAP
00
08
08
1c
1e
2a
2a
08
08
08
2a
2a
1e
1c
08
08
ENDCHAR
STARTCHAR 0013
ENCODING 19
SWIDTH 823 0
DWIDTH 8 0
BBX 8 16 0 -2
BITMAP
00
00
00
00
00
00
00
00
00
00
00
00
00
00
00
00
ENDCHAR
STARTCHAR 0014
ENCODING 20
SWIDTH 823 0
DWIDTH 8 0
BBX 8 16 0 -2
BITMAP
55
aa
55
aa
55
aa
55
aa
55
aa
55
aa
55
aa
55
aa
ENDCHAR
STARTCHAR 0015
ENCODING 21
SWIDTH 823 0
DWIDTH 8 0
BBX 8 16 0 -2
BITMAP
14
14
14
14
14
14
f7
00
ff
00
00
00
00
00
00
00
ENDCHAR
STARTCHAR 0016
ENCODING 22
SWIDTH 823 0
DWIDTH 8 0
BBX 8 16 0 -2
BITMAP
00
00
00
00
00
00
ff
00
f7
14
14
14
14
14
14
14
ENDCHAR
STARTCHAR 0017
ENCODING 23
SWIDTH 823 0
DWIDTH 8 0
BBX 8 16 0 -2
BITMAP
14
14
14
14
14
14
f4
04
f4
14
14
14
14
14
14
14
ENDCHAR
STARTCHAR 0018
ENCODING 24
SWIDTH 823 0
DWIDTH 8 0
BBX 8 16 0 -2
BITMAP
00
00
00
00
00
00
00
00
00
00
00
00
00
00
00
00
ENDCHAR
STARTCHAR 0019
ENCODING 25
SWIDTH 823 0
DWIDTH 8 0
BBX 8 16 0 -2
BITMAP
14
14
14
14
14
14
17
10
17
14
14
14
14
14
14
14
ENDCHAR
STARTCHAR 001a
ENCODING 26
SWIDTH 823 0
DWIDTH 8 0
BBX 8 16 0 -2
BITMAP
00
55
00
aa
00
55
00
aa
00
55
00
aa
00
55
00
aa
ENDCHAR
STARTCHAR 001b
ENCODING 27
SWIDTH 823 0
DWIDTH 8 0
BBX 8 16 0 -2
BITMAP
00
00
00
02
02
02
02
1a
62
fe
60
18
00
00
00
00
ENDCHAR
STARTCHAR 001c
ENCODING 28
SWIDTH 823 0
DWIDTH 8 0
BBX 8 16 0 -2
BITMAP
00
00
08
08
1c
1c
2a
2a
08
08
08
08
08
08
08
08
ENDCHAR
STARTCHAR 001d
ENCODING 29
SWIDTH 823 0
DWIDTH 8 0
BBX 8 16 0 -2
BITMAP
08
08
08
08
08
08
08
08
08
08
08
08
08
08
08
08
ENDCHAR
STARTCHAR 001e
ENCODING 30
SWIDTH 823 0
DWIDTH 8 0
BBX 8 16 0 -2
BITMAP
00
00
00
00
00
00
00
18
06
7f
06
18
00
00
00
00
ENDCHAR
STARTCHAR 001f
ENCODING 31
SWIDTH 823 0
DWIDTH 8 0
BBX 8 16 0 -2
BITMAP
00
00
00
00
00
00
00
20
60
fe
60
20
00
00
00
00
ENDCHAR
STARTCHAR 0020
ENCODING 32
SWIDTH 823 0
DWIDTH 8 0
BBX 8 16 0 -2
BITMAP
00
00
00
00
00
00
00
00
00
00
00
00
00
00
00
00
ENDCHAR
STARTCHAR 0021
ENCODING 33
SWIDTH 823 0
DWIDTH 8 0
BBX 8 16 0 -2
BITMAP
00
00
10
10
10
10
10
10
10
10
00
00
10
10
00
00
ENDCHAR
STARTCHAR 0022
ENCODING 34
SWIDTH 823 0
DWIDTH 8 0
BBX 8 16 0 -2
BITMAP
00
00
12
12
24
24
00
00
00
00
00
00
00
00
00
00
ENDCHAR
STARTCHAR 0023
ENCODING 35
SWIDTH 823 0
DWIDTH 8 0
BBX 8 16 0 -2
BITMAP
00
00
24
24
7e
24
24
24
24
24
7e
24
24
24
00
00
ENDCHAR
STARTCHAR 0024
ENCODING 36
SWIDTH 823 0
DWIDTH 8 0
BBX 8 16 0 -2
BITMAP
14
1c
36
54
54
34
1c
14
16
15
55
55
36
1c
14
00
ENDCHAR
STARTCHAR 0025
ENCODING 37
SWIDTH 823 0
DWIDTH 8 0
BBX 8 16 0 -2
BITMAP
00
31
49
4a
32
04
04
08
08
10
16
29
29
46
00
00
ENDCHAR
STARTCHAR 0026
ENCODING 38
SWIDTH 823 0
DWIDTH 8 0
BBX 8 16 0 -2
BITMAP
00
00
18
24
24
24
28
10
2b
4a
44
46
25
19
00
00
ENDCHAR
STARTCHAR 0027
ENCODING 39
SWIDTH 823 0
DWIDTH 8 0
BBX 8 16 0 -2
BITMAP
00
00
08
08
10
10
00
00
00
00
00
00
00
00
00
00
ENDCHAR
STARTCHAR 0028
ENCODING 40
SWIDTH 823 0
DWIDTH 8 0
BBX 8 16 0 -2
BITMAP
00
08
10
10
10
20
20
20
20
20
20
10
10
10
08
00
ENDCHAR
STARTCHAR 0029
ENCODING 41
SWIDTH 823 0
DWIDTH 8 0
BBX 8 16 0 -2
BITMAP
00
10
08
08
08
04
04
04
04
04
04
08
08
08
10
00
ENDCHAR
STARTCHAR 002a
ENCODING 42
SWIDTH 823 0
DWIDTH 8 0
BBX 8 16 0 -2
BITMAP
00
00
00
00
00
42
24
18
7e
18
24
42
00
00
00
00
ENDCHAR
STARTCHAR 002b
ENCODING 43
SWIDTH 823 0
DWIDTH 8 0
BBX 8 16 0 -2
BITMAP
00
00
00
08
08
08
08
7f
08
08
08
08
00
00
00
00
ENDCHAR
STARTCHAR 002c
ENCODING 44
SWIDTH 823 0
DWIDTH 8 0
BBX 8 16 0 -2
BITMAP
00
00
00
00
00
00
00
00
00
00
00
00
18
18
08
10
ENDCHAR
STARTCHAR 002d
ENCODING 45
SWIDTH 823 0
DWIDTH 8 0
BBX 8 16 0 -2
BITMAP
00
00
00
00
00
00
00
7e
00
00
00
00
00
00
00
00
ENDCHAR
STARTCHAR 002e
ENCODING 46
SWIDTH 823 0
DWIDTH 8 0
BBX 8 16 0 -2
BITMAP
00
00
00
00
00
00
00
00
00
00
00
00
18
18
00
00
ENDCHAR
STARTCHAR 002f
ENCODING 47
SWIDTH 823 0
DWIDTH 8 0
BBX 8 16 0 -2
BITMAP
00
00
01
02
02
04
04
08
08
10
10
20
20
40
00
00
ENDCHAR
STARTCHAR 0030
ENCODING 48
SWIDTH 823 0
DWIDTH 8 0
BBX 8 16 0 -2
BITMAP
00
18
24
24
42
42
42
42
42
42
42
24
24
18
00
00
ENDCHAR
STARTCHAR 0031
ENCODING 49
SWIDTH 823 0
DWIDTH 8 0
BBX 8 16 0 -2
BITMAP
00
18
08
08
08
08
08
08
08
08
08
08
08
08
00
00
ENDCHAR
STARTCHAR 0032
ENCODING 50
SWIDTH 823 0
DWIDTH 8 0
BBX 8 16 0 -2
BITMAP
00
18
24
42
42
02
04
04
08
10
20
40
40
7e
00
00
ENDCHAR
STARTCHAR 0033
ENCODING 51
SWIDTH 823 0
DWIDTH 8 0
BBX 8 16 0 -2
BITMAP
00
18
24
42
42
02
04
1c
04
02
42
42
24
18
00
00
ENDCHAR
STARTCHAR 0034
ENCODING 52
SWIDTH 823 0
DWIDTH 8 0
BBX 8 16 0 -2
BITMAP
00
02
06
06
0a
0a
12
12
22
22
7f
02
02
02
00
00
ENDCHAR
STARTCHAR 0035
ENCODING 53
SWIDTH 823 0
DWIDTH 8 0
BBX 8 16 0 -2
BITMAP
00
3c
20
20
20
40
78
44
02
02
42
42
24
18
00
00
ENDCHAR
STARTCHAR 0036
ENCODING 54
SWIDTH 823 0
DWIDTH 8 0
BBX 8 16 0 -2
BITMAP
00
08
08
10
10
20
38
24
42
42
42
42
24
18
00
00
ENDCHAR
STARTCHAR 0037
ENCODING 55
SWIDTH 823 0
DWIDTH 8 0
BBX 8 16 0 -2
BITMAP
00
7e
02
02
02
04
04
04
08
08
08
10
10
10
00
00
ENDCHAR
STARTCHAR 0038
ENCODING 56
SWIDTH 823 0
DWIDTH 8 0
BBX 8 16 0 -2
BITMAP
00
18
24
42
42
42
24
18
24
42
42
42
24
18
00
00
ENDCHAR
STARTCHAR 0039
ENCODING 57
SWIDTH 823 0
DWIDTH 8 0
BBX 8 16 0 -2
BITMAP
00
18
24
42
42
42
42
24
1c
04
08
08
10
10
00
00
ENDCHAR
STARTCHAR 003a
ENCODING 58
SWIDTH 823 0
DWIDTH 8 0
BBX 8 16 0 -2
BITMAP
00
00
00
00
18
18
00
00
00
00
18
18
00
00
00
00
ENDCHAR
STARTCHAR 003b
ENCODING 59
SWIDTH 823 0
DWIDTH 8 0
BBX 8 16 0 -2
BITMAP
00
00
00
00
18
18
00
00
00
00
18
18
08
10
00
00
ENDCHAR
STARTCHAR 003c
ENCODING 60
SWIDTH 823 0
DWIDTH 8 0
BBX 8 16 0 -2
BITMAP
00
00
02
04
08
10
20
40
20
10
08
04
02
00
00
00
ENDCHAR
STARTCHAR 003d
ENCODING 61
SWIDTH 823 0
DWIDTH 8 0
BBX 8 16 0 -2
BITMAP
00
00
00
00
00
00
7e
00
7e
00
00
00
00
00
00
00
ENDCHAR
STARTCHAR 003e
ENCODING 62
SWIDTH 823 0
DWIDTH 8 0
BBX 8 16 0 -2
BITMAP
00
00
40
20
10
08
04
02
04
08
10
20
40
00
00
00
ENDCHAR
STARTCHAR 003f
ENCODING 63
SWIDTH 823 0
DWIDTH 8 0
BBX 8 16 0 -2
BITMAP
00
3c
42
42
42
42
02
04
08
08
00
00
08
08
00
00
ENDCHAR
STARTCHAR 0040
ENCODING 64
SWIDTH 823 0
DWIDTH 8 0
BBX 8 16 0 -2
BITMAP
00
1c
22
41
49
55
55
55
55
55
55
4a
20
1f
00
00
ENDCHAR
STARTCHAR 0041
ENCODING 65
SWIDTH 823 0
DWIDTH 8 0
BBX 8 16 0 -2
BITMAP
00
08
08
14
14
14
22
22
3e
22
41
41
41
41
00
00
ENDCHAR
STARTCHAR 0042
ENCODING 66
SWIDTH 823 0
DWIDTH 8 0
BBX 8 16 0 -2
BITMAP
00
78
44
42
42
44
78
44
42
42
42
42
44
78
00
00
ENDCHAR
STARTCHAR 0043
ENCODING 67
SWIDTH 823 0
DWIDTH 8 0
BBX 8 16 0 -2
BITMAP
00
1c
22
20
40
40
40
40
40
40
41
21
22
1c
00
00
ENDCHAR
STARTCHAR 0044
ENCODING 68
SWIDTH 823 0
DWIDTH 8 0
BBX 8 16 0 -2
BITMAP
00
78
44
44
42
42
42
42
42
42
42
44
44
78
00
00
ENDCHAR
STARTCHAR 0045
ENCODING 69
SWIDTH 823 0
DWIDTH 8 0
BBX 8 16 0 -2
BITMAP
00
7e
40
40
40
40
40
7c
40
40
40
40
40
7e
00
00
ENDCHAR
STARTCHAR 0046
ENCODING 70
SWIDTH 823 0
DWIDTH 8 0
BBX 8 16 0 -2
BITMAP
00
7e
40
40
40
40
40
7c
40
40
40
40
40
40
00
00
ENDCHAR
STARTCHAR 0047
ENCODING 71
SWIDTH 823 0
DWIDTH 8 0
BBX 8 16 0 -2
BITMAP
00
1c
22
20
40
40
40
40
47
41
41
21
22
1c
00
00
ENDCHAR
STARTCHAR 0048
ENCODING 72
SWIDTH 823 0
DWIDTH 8 0
BBX 8 16 0 -2
BITMAP
00
42
42
42
42
42
42
7e
42
42
42
42
42
42
00
00
ENDCHAR
STARTCHAR 0049
ENCODING 73
SWIDTH 823 0
DWIDTH 8 0
BBX 8 16 0 -2
BITMAP
00
08
08
08
08
08
08
08
08
08
08
08
08
08
00
00
ENDCHAR
STARTCHAR 004a
ENCODING 74
SWIDTH 823 0
DWIDTH 8 0
BBX 8 16 0 -2
BITMAP
00
02
02
02
02
02
02
02
02
02
42
42
24
18
00
00
ENDCHAR
STARTCHAR 004b
ENCODING 75
SWIDTH 823 0
DWIDTH 8 0
BBX 8 16 0 -2
BITMAP
00
41
42
44
48
50
78
48
44
44
42
42
41
41
00
00
ENDCHAR
STARTCHAR 004c
ENCODING 76
SWIDTH 823 0
DWIDTH 8 0
BBX 8 16 0 -2
BITMAP
00
20
20
20
20
20
20
20
20
20
20
20
20
3f
00
00
ENDCHAR
STARTCHAR 004d
ENCODING 77
SWIDTH 823 0
DWIDTH 8 0
BBX 8 16 0 -2
BITMAP
00
22
22
22
36
36
36
2a
2a
2a
22
22
22
22
00
00
ENDCHAR
STARTCHAR 004e
ENCODING 78
SWIDTH 823 0
DWIDTH 8 0
BBX 8 16 0 -2
BITMAP
00
42
62
62
62
52
52
52
4a
4a
4a
46
46
42
00
00
ENDCHAR
STARTCHAR 004f
ENCODING 79
SWIDTH 823 0
DWIDTH 8 0
BBX 8 16 0 -2
BITMAP
00
3c
42
42
42
42
42
42
42
42
42
42
42
3c
00
00
ENDCHAR
STARTCHAR 0050
ENCODING 80
SWIDTH 823 0
DWIDTH 8 0
BBX 8 16 0 -2
BITMAP
00
3c
22
21
21
21
22
3c
20
20
20
20
20
20
00
00
ENDCHAR
STARTCHAR 0051
ENCODING 81
SWIDTH 823 0
DWIDTH 8 0
BBX 8 16 0 -2
BITMAP
00
18
24
42
42
42
42
42
42
42
42
42
24
1b
00
00
ENDCHAR
STARTCHAR 0052
ENCODING 82
SWIDTH 823 0
DWIDTH 8 0
BBX 8 16 0 -2
BITMAP
00
3e
21
21
21
21
22
3c
24
24
22
22
21
21
00
00
ENDCHAR
STARTCHAR 0053
ENCODING 83
SWIDTH 823 0
DWIDTH 8 0
BBX 8 16 0 -2
BITMAP
00
18
24
42
40
20
18
04
02
01
41
41
22
1c
00
00
ENDCHAR
STARTCHAR 0054
ENCODING 84
SWIDTH 823 0
DWIDTH 8 0
BBX 8 16 0 -2
BITMAP
00
7f
08
08
08
08
08
08
08
08
08
08
08
08
00
00
ENDCHAR
STARTCHAR 0055
ENCODING 85
SWIDTH 823 0
DWIDTH 8 0
BBX 8 16 0 -2
BITMAP
00
42
42
42
42
42
42
42
42
42
42
42
42
3c
00
00
ENDCHAR
STARTCHAR 0056
ENCODING 86
SWIDTH 823 0
DWIDTH 8 0
BBX 8 16 0 -2
BITMAP
00
41
41
41
41
22
22
22
14
14
14
08
08
08
00
00
ENDCHAR
STARTCHAR 0057
ENCODING 87
SWIDTH 823 0
DWIDTH 8 0
BBX 8 16 0 -2
BITMAP
00
51
51
51
51
2a
2a
2a
2a
2a
14
14
14
14
00
00
ENDCHAR
STARTCHAR 0058
ENCODING 88
SWIDTH 823 0
DWIDTH 8 0
BBX 8 16 0 -2
BITMAP
00
41
41
22
22
14
14
08
14
14
22
22
41
41
00
00
ENDCHAR
STARTCHAR 0059
ENCODING 89
SWIDTH 823 0
DWIDTH 8 0
BBX 8 16 0 -2
BITMAP
00
41
41
22
22
14
14
08
08
08
08
08
08
08
00
00
ENDCHAR
STARTCHAR 005a
ENCODING 90
SWIDTH 823 0
DWIDTH 8 0
BBX 8 16 0 -2
BITMAP
00
7f
01
02
02
04
08
08
10
20
20
40
40
7f
00
00
ENDCHAR
STARTCHAR 005b
ENCODING 91
SWIDTH 823 0
DWIDTH 8 0
BBX 8 16 0 -2
BITMAP
00
1c
10
10
10
10
10
10
10
10
10
10
10
1c
00
00
ENDCHAR
STARTCHAR 005c
ENCODING 92
SWIDTH 823 0
DWIDTH 8 0
BBX 8 16 0 -2
BITMAP
00
41
41
22
22
7f
14
08
08
7f
08
08
08
08
00
00
ENDCHAR
STARTCHAR 005d
ENCODING 93
SWIDTH 823 0
DWIDTH 8 0
BBX 8 16 0 -2
BITMAP
00
38
08
08
08
08
08
08
08
08
08
08
08
38
00
00
ENDCHAR
STARTCHAR 005e
ENCODING 94
SWIDTH 823 0
DWIDTH 8 0
BBX 8 16 0 -2
BITMAP
00
00
10
28
44
00
00
00
00
00
00
00
00
00
00
00
ENDCHAR
STARTCHAR 005f
ENCODING 95
SWIDTH 823 0
DWIDTH 8 0
BBX 8 16 0 -2
BITMAP
00
00
00
00
00
00
00
00
00
00
00
00
00
00
ff
00
ENDCHAR
STARTCHAR 0060
ENCODING 96
SWIDTH 823 0
DWIDTH 8 0
BBX 8 16 0 -2
BITMAP
00
00
30
30
20
10
00
00
00
00
00
00
00
00
00
00
ENDCHAR
STARTCHAR 0061
ENCODING 97
SWIDTH 823 0
DWIDTH 8 0
BBX 8 16 0 -2
BITMAP
00
00
00
00
00
1c
22
02
1e
22
42
42
46
3a
00
00
ENDCHAR
STARTCHAR 0062
ENCODING 98
SWIDTH 823 0
DWIDTH 8 0
BBX 8 16 0 -2
BITMAP
00
00
40
40
40
58
64
42
42
42
42
42
64
58
00
00
ENDCHAR
STARTCHAR 0063
ENCODING 99
SWIDTH 823 0
DWIDTH 8 0
BBX 8 16 0 -2
BITMAP
00
00
00
00
00
1c
22
40
40
40
40
40
22
1c
00
00
ENDCHAR
STARTCHAR 0064
ENCODING 100
SWIDTH 823 0
DWIDTH 8 0
BBX 8 16 0 -2
BITMAP
00
00
02
02
02
1a
26
42
42
42
42
42
26
1a
00
00
ENDCHAR
STARTCHAR 0065
ENCODING 101
SWIDTH 823 0
DWIDTH 8 0
BBX 8 16 0 -2
BITMAP
00
00
00
00
00
18
24
42
42
7e
40
40
22
1c
00
00
ENDCHAR
STARTCHAR 0066
ENCODING 102
SWIDTH 823 0
DWIDTH 8 0
BBX 8 16 0 -2
BITMAP
00
0c
10
10
10
3c
10
10
10
10
10
10
10
10
00
00
ENDCHAR
STARTCHAR 0067
ENCODING 103
SWIDTH 823 0
DWIDTH 8 0
BBX 8 16 0 -2
BITMAP
00
00
00
00
00
1a
26
42
42
42
42
26
1a
02
42
3c
ENDCHAR
STARTCHAR 0068
ENCODING 104
SWIDTH 823 0
DWIDTH 8 0
BBX 8 16 0 -2
BITMAP
00
00
40
40
40
40
58
64
42
42
42
42
42
42
00
00
ENDCHAR
STARTCHAR 0069
ENCODING 105
SWIDTH 823 0
DWIDTH 8 0
BBX 8 16 0 -2
BITMAP
00
00
08
08
00
00
08
08
08
08
08
08
08
08
00
00
ENDCHAR
STARTCHAR 006a
ENCODING 106
SWIDTH 823 0
DWIDTH 8 0
BBX 8 16 0 -2
BITMAP
00
00
04
04
00
00
04
04
04
04
04
04
04
04
24
18
ENDCHAR
STARTCHAR 006b
ENCODING 107
SWIDTH 823 0
DWIDTH 8 0
BBX 8 16 0 -2
BITMAP
00
20
20
20
20
21
22
24
28
30
28
24
22
21
00
00
ENDCHAR
STARTCHAR 006c
ENCODING 108
SWIDTH 823 0
DWIDTH 8 0
BBX 8 16 0 -2
BITMAP
00
08
08
08
08
08
08
08
08
08
08
08
08
0c
00
00
ENDCHAR
STARTCHAR 006d
ENCODING 109
SWIDTH 823 0
DWIDTH 8 0
BBX 8 16 0 -2
BITMAP
00
00
00
00
00
56
69
49
49
49
49
49
49
49
00
00
ENDCHAR
STARTCHAR 006e
ENCODING 110
SWIDTH 823 0
DWIDTH 8 0
BBX 8 16 0 -2
BITMAP
00
00
00
00
00
5c
62
42
42
42
42
42
42
42
00
00
ENDCHAR
STARTCHAR 006f
ENCODING 111
SWIDTH 823 0
DWIDTH 8 0
BBX 8 16 0 -2
BITMAP
00
00
00
00
00
1c
22
41
41
41
41
41
22
1c
00
00
ENDCHAR
STARTCHAR 0070
ENCODING 112
SWIDTH 823 0
DWIDTH 8 0
BBX 8 16 0 -2
BITMAP
00
00
00
00
00
58
64
42
42
42
42
42
64
58
40
40
ENDCHAR
STARTCHAR 0071
ENCODING 113
SWIDTH 823 0
DWIDTH 8 0
BBX 8 16 0 -2
BITMAP
00
00
00
00
00
1a
26
42
42
42
42
42
26
1a
02
02
ENDCHAR
STARTCHAR 0072
ENCODING 114
SWIDTH 823 0
DWIDTH 8 0
BBX 8 16 0 -2
BITMAP
00
00
00
00
00
2e
30
20
20
20
20
20
20
20
00
00
ENDCHAR
STARTCHAR 0073
ENCODING 115
SWIDTH 823 0
DWIDTH 8 0
BBX 8 16 0 -2
BITMAP
00
00
00
00
00
38
44
40
30
0c
02
02
42
3c
00
00
ENDCHAR
STARTCHAR 0074
ENCODING 116
SWIDTH 823 0
DWIDTH 8 0
BBX 8 16 0 -2
BITMAP
00
00
00
10
10
3c
10
10
10
10
10
10
10
0c
00
00
ENDCHAR
STARTCHAR 0075
ENCODING 117
SWIDTH 823 0
DWIDTH 8 0
BBX 8 16 0 -2
BITMAP
00
00
00
00
00
42
42
42
42
42
42
42
46
3a
00
00
ENDCHAR
STARTCHAR 0076
ENCODING 118
SWIDTH 823 0
DWIDTH 8 0
BBX 8 16 0 -2
BITMAP
00
00
00
00
00
41
41
41
22
22
14
14
08
08
00
00
ENDCHAR
STARTCHAR 0077
ENCODING 119
SWIDTH 823 0
DWIDTH 8 0
BBX 8 16 0 -2
BITMAP
00
00
00
00
00
51
51
51
2a
2a
2a
14
14
14
00
00
ENDCHAR
STARTCHAR 0078
ENCODING 120
SWIDTH 823 0
DWIDTH 8 0
BBX 8 16 0 -2
BITMAP
00
00
00
00
00
00
41
22
14
08
08
14
22
41
00
00
ENDCHAR
STARTCHAR 0079
ENCODING 121
SWIDTH 823 0
DWIDTH 8 0
BBX 8 16 0 -2
BITMAP
00
00
00
00
00
41
41
22
22
14
14
08
08
10
10
20
ENDCHAR
STARTCHAR 007a
ENCODING 122
SWIDTH 823 0
DWIDTH 8 0
BBX 8 16 0 -2
BITMAP
00
00
00
00
00
00
7e
02
04
08
10
20
40
7e
00
00
ENDCHAR
STARTCHAR 007b
ENCODING 123
SWIDTH 823 0
DWIDTH 8 0
BBX 8 16 0 -2
BITMAP
00
0c
10
10
10
10
10
20
10
10
10
10
10
0c
00
00
ENDCHAR
STARTCHAR 007c
ENCODING 124
SWIDTH 823 0
DWIDTH 8 0
BBX 8 16 0 -2
BITMAP
00
00
10
10
10
10
10
10
10
10
10
10
10
10
00
00
ENDCHAR
STARTCHAR 007d
ENCODING 125
SWIDTH 823 0
DWIDTH 8 0
BBX 8 16 0 -2
BITMAP
00
30
08
08
08
08
08
04
08
08
08
08
08
30
00
00
ENDCHAR
STARTCHAR 007e
ENCODING 126
SWIDTH 823 0
DWIDTH 8 0
BBX 8 16 0 -2
BITMAP
00
00
7e
00
00
00
00
00
00
00
00
00
00
00
00
00
ENDCHAR
STARTCHAR 007f
ENCODING 127
SWIDTH 823 0
DWIDTH 8 0
BBX 8 16 0 -2
BITMAP
00
00
00
00
00
00
00
00
00
00
00
00
00
00
00
00
ENDCHAR
STARTCHAR 0080
ENCODING 128
SWIDTH 823 0
DWIDTH 8 0
BBX 8 16 0 -2
BITMAP
00
00
00
00
00
00
00
00
00
00
00
00
00
00
00
00
ENDCHAR
STARTCHAR 0081
ENCODING 129
SWIDTH 823 0
DWIDTH 8 0
BBX 8 16 0 -2
BITMAP
00
00
00
00
00
00
00
00
00
00
00
00
00
00
00
00
ENDCHAR
STARTCHAR 0082
ENCODING 130
SWIDTH 823 0
DWIDTH 8 0
BBX 8 16 0 -2
BITMAP
00
00
00
00
00
00
00
00
00
00
00
00
00
00
00
00
ENDCHAR
STARTCHAR 0083
ENCODING 131
SWIDTH 823 0
DWIDTH 8 0
BBX 8 16 0 -2
BITMAP
00
00
00
00
00
00
00
00
00
00
00
00
00
00
00
00
ENDCHAR
STARTCHAR 0084
ENCODING 132
SWIDTH 823 0
DWIDTH 8 0
BBX 8 16 0 -2
BITMAP
00
00
00
00
00
00
00
00
00
00
00
00
00
00
00
00
ENDCHAR
STARTCHAR 0085
ENCODING 133
SWIDTH 823 0
DWIDTH 8 0
BBX 8 16 0 -2
BITMAP
00
00
00
00
00
00
00
00
00
00
00
00
00
00
00
00
ENDCHAR
STARTCHAR 0086
ENCODING 134
SWIDTH 823 0
DWIDTH 8 0
BBX 8 16 0 -2
BITMAP
00
00
00
00
00
00
00
00
00
00
00
00
00
00
00
00
ENDCHAR
STARTCHAR 0087
ENCODING 135
SWIDTH 823 0
DWIDTH 8 0
BBX 8 16 0 -2
BITMAP
00
00
00
00
00
00
00
00
00
00
00
00
00
00
00
00
ENDCHAR
STARTCHAR 0088
ENCODING 136
SWIDTH 823 0
DWIDTH 8 0
BBX 8 16 0 -2
BITMAP
00
00
00
00
00
00
00
00
00
00
00
00
00
00
00
00
ENDCHAR
STARTCHAR 0089
ENCODING 137
SWIDTH 823 0
DWIDTH 8 0
BBX 8 16 0 -2
BITMAP
00
00
00
00
00
00
00
00
00
00
00
00
00
00
00
00
ENDCHAR
STARTCHAR 008a
ENCODING 138
SWIDTH 823 0
DWIDTH 8 0
BBX 8 16 0 -2
BITMAP
00
00
00
00
00
00
00
00
00
00
00
00
00
00
00
00
ENDCHAR
STARTCHAR 008b
ENCODING 139
SWIDTH 823 0
DWIDTH 8 0
BBX 8 16 0 -2
BITMAP
00
00
00
00
00
00
00
00
00
00
00
00
00
00
00
00
ENDCHAR
STARTCHAR 008c
ENCODING 140
SWIDTH 823 0
DWIDTH 8 0
BBX 8 16 0 -2
BITMAP
00
00
00
00
00
00
00
00
00
00
00
00
00
00
00
00
ENDCHAR
STARTCHAR 008d
ENCODING 141
SWIDTH 823 0
DWIDTH 8 0
BBX 8 16 0 -2
BITMAP
00
00
00
00
00
00
00
00
00
00
00
00
00
00
00
00
ENDCHAR
STARTCHAR 008e
ENCODING 142
SWIDTH 823 0
DWIDTH 8 0
BBX 8 16 0 -2
BITMAP
00
00
00
00
00
00
00
00
00
00
00
00
00
00
00
00
ENDCHAR
STARTCHAR 008f
ENCODING 143
SWIDTH 823 0
DWIDTH 8 0
BBX 8 16 0 -2
BITMAP
00
00
00
00
00
00
00
00
00
00
00
00
00
00
00
00
ENDCHAR
STARTCHAR 0090
ENCODING 144
SWIDTH 823 0
DWIDTH 8 0
BBX 8 16 0 -2
BITMAP
00
00
00
00
00
00
00
00
00
00
00
00
00
00
00
00
ENDCHAR
STARTCHAR 0091
ENCODING 145
SWIDTH 823 0
DWIDTH 8 0
BBX 8 16 0 -2
BITMAP
00
00
00
00
00
00
00
00
00
00
00
00
00
00
00
00
ENDCHAR
STARTCHAR 0092
ENCODING 146
SWIDTH 823 0
DWIDTH 8 0
BBX 8 16 0 -2
BITMAP
00
00
00
00
00
00
00
00
00
00
00
00
00
00
00
00
ENDCHAR
STARTCHAR 0093
ENCODING 147
SWIDTH 823 0
DWIDTH 8 0
BBX 8 16 0 -2
BITMAP
00
00
00
00
00
00
00
00
00
00
00
00
00
00
00
00
ENDCHAR
STARTCHAR 0094
ENCODING 148
SWIDTH 823 0
DWIDTH 8 0
BBX 8 16 0 -2
BITMAP
00
00
00
00
00
00
00
00
00
00
00
00
00
00
00
00
ENDCHAR
STARTCHAR 0095
ENCODING 149
SWIDTH 823 0
DWIDTH 8 0
BBX 8 16 0 -2
BITMAP
00
00
00
00
00
00
00
00
00
00
00
00
00
00
00
00
ENDCHAR
STARTCHAR 0096
ENCODING 150
SWIDTH 823 0
DWIDTH 8 0
BBX 8 16 0 -2
BITMAP
00
00
00
00
00
00
00
00
00
00
00
00
00
00
00
00
ENDCHAR
STARTCHAR 0097
ENCODING 151
SWIDTH 823 0
DWIDTH 8 0
BBX 8 16 0 -2
BITMAP
00
00
00
00
00
00
00
00
00
00
00
00
00
00
00
00
ENDCHAR
STARTCHAR 0098
ENCODING 152
SWIDTH 823 0
DWIDTH 8 0
BBX 8 16 0 -2
BITMAP
00
00
00
00
00
00
00
00
00
00
00
00
00
00
00
00
ENDCHAR
STARTCHAR 0099
ENCODING 153
SWIDTH 823 0
DWIDTH 8 0
BBX 8 16 0 -2
BITMAP
00
00
00
00
00
00
00
00
00
00
00
00
00
00
00
00
ENDCHAR
STARTCHAR 009a
ENCODING 154
SWIDTH 823 0
DWIDTH 8 0
BBX 8 16 0 -2
BITMAP
00
00
00
00
00
00
00
00
00
00
00
00
00
00
00
00
ENDCHAR
STARTCHAR 009b
ENCODING 155
SWIDTH 823 0
DWIDTH 8 0
BBX 8 16 0 -2
BITMAP
00
00
00
00
00
00
00
00
00
00
00
00
00
00
00
00
ENDCHAR
STARTCHAR 009c
ENCODING 156
SWIDTH 823 0
DWIDTH 8 0
BBX 8 16 0 -2
BITMAP
00
00
00
00
00
00
00
00
00
00
00
00
00
00
00
00
ENDCHAR
STARTCHAR 009d
ENCODING 157
SWIDTH 823 0
DWIDTH 8 0
BBX 8 16 0 -2
BITMAP
00
00
00
00
00
00
00
00
00
00
00
00
00
00
00
00
ENDCHAR
STARTCHAR 009e
ENCODING 158
SWIDTH 823 0
DWIDTH 8 0
BBX 8 16 0 -2
BITMAP
00
00
00
00
00
00
00
00
00
00
00
00
00
00
00
00
ENDCHAR
STARTCHAR 009f
ENCODING 159
SWIDTH 823 0
DWIDTH 8 0
BBX 8 16 0 -2
BITMAP
00
00
00
00
00
00
00
00
00
00
00
00
00
00
00
00
ENDCHAR
STARTCHAR 00a0
ENCODING 160
SWIDTH 823 0
DWIDTH 8 0
BBX 8 16 0 -2
BITMAP
00
00
00
00
00
00
00
00
00
00
00
00
00
00
00
00
ENDCHAR
STARTCHAR 00a1
ENCODING 161
SWIDTH 823 0
DWIDTH 8 0
BBX 8 16 0 -2
BITMAP
00
00
00
00
00
00
00
00
00
00
00
00
30
48
48
30
ENDCHAR
STARTCHAR 00a2
ENCODING 162
SWIDTH 823 0
DWIDTH 8 0
BBX 8 16 0 -2
BITMAP
3e
20
20
20
20
20
20
20
20
20
20
00
00
00
00
00
ENDCHAR
STARTCHAR 00a3
ENCODING 163
SWIDTH 823 0
DWIDTH 8 0
BBX 8 16 0 -2
BITMAP
00
00
00
00
00
02
02
02
02
02
02
02
02
02
02
3e
ENDCHAR
STARTCHAR 00a4
ENCODING 164
SWIDTH 823 0
DWIDTH 8 0
BBX 8 16 0 -2
BITMAP
00
00
00
00
00
00
00
00
00
00
00
00
00
40
20
10
ENDCHAR
STARTCHAR 00a5
ENCODING 165
SWIDTH 823 0
DWIDTH 8 0
BBX 8 16 0 -2
BITMAP
00
00
00
00
00
00
00
18
18
00
00
00
00
00
00
00
ENDCHAR
STARTCHAR 00a6
ENCODING 166
SWIDTH 823 0
DWIDTH 8 0
BBX 8 16 0 -2
BITMAP
00
00
00
3f
01
01
01
7f
01
01
02
02
04
08
30
00
ENDCHAR
STARTCHAR 00a7
ENCODING 167
SWIDTH 823 0
DWIDTH 8 0
BBX 8 16 0 -2
BITMAP
00
00
00
00
00
00
7f
01
09
0a
0a
0c
08
08
10
20
ENDCHAR
STARTCHAR 00a8
ENCODING 168
SWIDTH 823 0
DWIDTH 8 0
BBX 8 16 0 -2
BITMAP
00
00
00
00
00
00
02
02
04
18
68
08
08
08
08
00
ENDCHAR
STARTCHAR 00a9
ENCODING 169
SWIDTH 823 0
DWIDTH 8 0
BBX 8 16 0 -2
BITMAP
00
00
00
00
08
08
08
7f
41
41
01
02
02
04
18
00
ENDCHAR
STARTCHAR 00aa
ENCODING 170
SWIDTH 823 0
DWIDTH 8 0
BBX 8 16 0 -2
BITMAP
00
00
00
00
00
00
00
00
3e
08
08
08
08
08
7f
00
ENDCHAR
STARTCHAR 00ab
ENCODING 171
SWIDTH 823 0
DWIDTH 8 0
BBX 8 16 0 -2
BITMAP
00
00
00
00
00
00
04
04
7f
04
0c
14
24
44
04
0c
ENDCHAR
STARTCHAR 00ac
ENCODING 172
SWIDTH 823 0
DWIDTH 8 0
BBX 8 16 0 -2
BITMAP
00
00
00
00
00
20
20
23
1d
72
14
10
08
08
08
08
ENDCHAR
STARTCHAR 00ad
ENCODING 173
SWIDTH 823 0
DWIDTH 8 0
BBX 8 16 0 -2
BITMAP
00
00
00
00
00
00
00
00
3c
04
04
04
08
08
7f
00
ENDCHAR
STARTCHAR 00ae
ENCODING 174
SWIDTH 823 0
DWIDTH 8 0
BBX 8 16 0 -2
BITMAP
00
00
00
00
00
00
00
7e
02
02
7e
02
02
02
7e
02
ENDCHAR
STARTCHAR 00af
ENCODING 175
SWIDTH 823 0
DWIDTH 8 0
BBX 8 16 0 -2
BITMAP
00
00
00
00
00
00
00
10
51
49
21
01
02
04
08
30
ENDCHAR
STARTCHAR 00b0
ENCODING 176
SWIDTH 823 0
DWIDTH 8 0
BBX 8 16 0 -2
BITMAP
00
00
00
00
00
00
00
40
3f
00
00
00
00
00
00
00
ENDCHAR
STARTCHAR 00b1
ENCODING 177
SWIDTH 823 0
DWIDTH 8 0
BBX 8 16 0 -2
BITMAP
00
00
7f
01
01
0a
0a
0c
08
08
08
10
10
20
40
00
ENDCHAR
STARTCHAR 00b2
ENCODING 178
SWIDTH 823 0
DWIDTH 8 0
BBX 8 16 0 -2
BITMAP
00
01
01
01
02
02
04
1c
64
04
04
04
04
04
04
00
ENDCHAR
STARTCHAR 00b3
ENCODING 179
SWIDTH 823 0
DWIDTH 8 0
BBX 8 16 0 -2
BITMAP
00
08
08
08
7f
41
41
41
01
01
01
02
02
04
18
00
ENDCHAR
STARTCHAR 00b4
ENCODING 180
SWIDTH 823 0
DWIDTH 8 0
BBX 8 16 0 -2
BITMAP
00
00
00
00
3e
08
08
08
08
08
08
08
08
7f
00
00
ENDCHAR
STARTCHAR 00b5
ENCODING 181
SWIDTH 823 0
DWIDTH 8 0
BBX 8 16 0 -2
BITMAP
00
04
04
04
7f
04
0c
0c
0c
14
14
24
44
04
0c
00
ENDCHAR
STARTCHAR 00b6
ENCODING 182
SWIDTH 823 0
DWIDTH 8 0
BBX 8 16 0 -2
BITMAP
00
10
10
10
7f
11
11
11
11
11
11
11
21
22
46
00
ENDCHAR
STARTCHAR 00b7
ENCODING 183
SWIDTH 823 0
DWIDTH 8 0
BBX 8 16 0 -2
BITMAP
00
10
10
10
0e
78
08
08
0f
78
04
04
04
04
04
00
ENDCHAR
STARTCHAR 00b8
ENCODING 184
SWIDTH 823 0
DWIDTH 8 0
BBX 8 16 0 -2
BITMAP
00
08
08
0f
11
11
21
41
02
02
04
04
08
10
60
00
ENDCHAR
STARTCHAR 00b9
ENCODING 185
SWIDTH 823 0
DWIDTH 8 0
BBX 8 16 0 -2
BITMAP
00
10
10
10
10
3f
24
24
44
04
04
08
08
10
20
00
ENDCHAR
STARTCHAR 00ba
ENCODING 186
SWIDTH 823 0
DWIDTH 8 0
BBX 8 16 0 -2
BITMAP
00
00
00
00
7e
02
02
02
02
02
02
02
02
7e
02
00
ENDCHAR
STARTCHAR 00bb
ENCODING 187
SWIDTH 823 0
DWIDTH 8 0
BBX 8 16 0 -2
BITMAP
00
02
12
12
12
7f
12
12
12
02
02
04
04
08
10
00
ENDCHAR
STARTCHAR 00bc
ENCODING 188
SWIDTH 823 0
DWIDTH 8 0
BBX 8 16 0 -2
BITMAP
00
00
00
30
08
00
00
61
11
01
02
02
04
18
60
00
ENDCHAR
STARTCHAR 00bd
ENCODING 189
SWIDTH 823 0
DWIDTH 8 0
BBX 8 16 0 -2
BITMAP
00
00
00
3e
02
02
02
02
04
04
0c
0a
12
21
41
00
ENDCHAR
STARTCHAR 00be
ENCODING 190
SWIDTH 823 0
DWIDTH 8 0
BBX 8 16 0 -2
BITMAP
00
10
10
10
13
1d
71
12
12
14
10
10
10
0f
00
00
ENDCHAR
STARTCHAR 00bf
ENCODING 191
SWIDTH 823 0
DWIDTH 8 0
BBX 8 16 0 -2
BITMAP
00
00
41
41
41
21
21
01
02
02
04
04
08
10
20
00
ENDCHAR
STARTCHAR 00c0
ENCODING 192
SWIDTH 823 0
DWIDTH 8 0
BBX 8 16 0 -2
BITMAP
00
08
08
0f
11
11
21
49
06
02
05
04
08
10
60
00
ENDCHAR
STARTCHAR 00c1
ENCODING 193
SWIDTH 823 0
DWIDTH 8 0
BBX 8 16 0 -2
BITMAP
00
02
0c
78
08
08
08
7f
08
08
08
08
10
10
20
00
ENDCHAR
STARTCHAR 00c2
ENCODING 194
SWIDTH 823 0
DWIDTH 8 0
BBX 8 16 0 -2
BITMAP
00
00
10
10
49
49
21
21
01
01
02
02
04
08
10
00
ENDCHAR
STARTCHAR 00c3
ENCODING 195
SWIDTH 823 0
DWIDTH 8 0
BBX 8 16 0 -2
BITMAP
00
00
3e
00
00
00
7f
04
04
04
04
08
08
10
20
00
ENDCHAR
STARTCHAR 00c4
ENCODING 196
SWIDTH 823 0
DWIDTH 8 0
BBX 8 16 0 -2
BITMAP
00
20
20
20
20
20
38
24
22
20
20
20
20
20
20
00
ENDCHAR
STARTCHAR 00c5
ENCODING 197
SWIDTH 823 0
DWIDTH 8 0
BBX 8 16 0 -2
BITMAP
00
04
04
04
04
7f
04
04
04
04
04
08
08
10
20
00
ENDCHAR
STARTCHAR 00c6
ENCODING 198
SWIDTH 823 0
DWIDTH 8 0
BBX 8 16 0 -2
BITMAP
00
00
00
00
3e
00
00
00
00
00
00
00
7f
00
00
00
ENDCHAR
STARTCHAR 00c7
ENCODING 199
SWIDTH 823 0
DWIDTH 8 0
BBX 8 16 0 -2
BITMAP
00
00
00
3f
01
01
01
12
0a
04
04
0a
11
21
40
00
ENDCHAR
STARTCHAR 00c8
ENCODING 200
SWIDTH 823 0
DWIDTH 8 0
BBX 8 16 0 -2
BITMAP
00
10
10
08
7e
02
04
04
0a
19
29
48
08
08
08
00
ENDCHAR
STARTCHAR 00c9
ENCODING 201
SWIDTH 823 0
DWIDTH 8 0
BBX 8 16 0 -2
BITMAP
00
00
00
02
02
02
02
02
02
04
04
08
10
60
00
00
ENDCHAR
STARTCHAR 00ca
ENCODING 202
SWIDTH 823 0
DWIDTH 8 0
BBX 8 16 0 -2
BITMAP
00
00
00
00
10
12
12
12
11
11
21
21
41
00
00
00
ENDCHAR
STARTCHAR 00cb
ENCODING 203
SWIDTH 823 0
DWIDTH 8 0
BBX 8 16 0 -2
BITMAP
00
00
20
20
20
21
26
38
20
20
20
20
20
20
1e
00
ENDCHAR
STARTCHAR 00cc
ENCODING 204
SWIDTH 823 0
DWIDTH 8 0
BBX 8 16 0 -2
BITMAP
00
00
00
7f
01
01
01
01
01
01
02
02
04
08
30
00
ENDCHAR
STARTCHAR 00cd
ENCODING 205
SWIDTH 823 0
DWIDTH 8 0
BBX 8 16 0 -2
BITMAP
00
00
00
10
28
28
44
44
02
02
01
01
01
00
00
00
ENDCHAR
STARTCHAR 00ce
ENCODING 206
SWIDTH 823 0
DWIDTH 8 0
BBX 8 16 0 -2
BITMAP
00
08
08
08
7f
08
08
2a
2a
29
49
49
08
08
18
00
ENDCHAR
STARTCHAR 00cf
ENCODING 207
SWIDTH 823 0
DWIDTH 8 0
BBX 8 16 0 -2
BITMAP
00
00
00
7f
01
01
01
02
12
14
08
08
08
08
00
00
ENDCHAR
STARTCHAR 00d0
ENCODING 208
SWIDTH 823 0
DWIDTH 8 0
BBX 8 16 0 -2
BITMAP
00
00
00
30
0c
03
00
20
18
06
00
00
70
0c
02
01
ENDCHAR
STARTCHAR 00d1
ENCODING 209
SWIDTH 823 0
DWIDTH 8 0
BBX 8 16 0 -2
BITMAP
00
00
10
10
10
10
10
10
10
14
22
23
2d
71
00
00
ENDCHAR
STARTCHAR 00d2
ENCODING 210
SWIDTH 823 0
DWIDTH 8 0
BBX 8 16 0 -2
BITMAP
00
01
01
01
01
01
12
0a
04
06
09
11
20
40
00
00
ENDCHAR
STARTCHAR 00d3
ENCODING 211
SWIDTH 823 0
DWIDTH 8 0
BBX 8 16 0 -2
BITMAP
00
00
00
3e
10
10
10
7f
10
10
10
10
10
0e
00
00
ENDCHAR
STARTCHAR 00d4
ENCODING 212
SWIDTH 823 0
DWIDTH 8 0
BBX 8 16 0 -2
BITMAP
00
00
20
20
20
27
19
72
12
14
08
08
08
08
08
00
ENDCHAR
STARTCHAR 00d5
ENCODING 213
SWIDTH 823 0
DWIDTH 8 0
BBX 8 16 0 -2
BITMAP
00
00
00
00
3c
04
04
04
04
04
04
04
04
7f
00
00
ENDCHAR
STARTCHAR 00d6
ENCODING 214
SWIDTH 823 0
DWIDTH 8 0
BBX 8 16 0 -2
BITMAP
00
00
7e
02
02
02
02
3e
02
02
02
02
02
7e
02
00
ENDCHAR
STARTCHAR 00d7
ENCODING 215
SWIDTH 823 0
DWIDTH 8 0
BBX 8 16 0 -2
BITMAP
00
00
3c
00
00
00
7e
02
02
02
04
04
08
10
20
00
ENDCHAR
STARTCHAR 00d8
ENCODING 216
SWIDTH 823 0
DWIDTH 8 0
BBX 8 16 0 -2
BITMAP
00
02
22
22
22
22
22
22
22
02
02
04
04
08
10
00
ENDCHAR
STARTCHAR 00d9
ENCODING 217
SWIDTH 823 0
DWIDTH 8 0
BBX 8 16 0 -2
BITMAP
00
00
08
28
28
28
28
28
28
28
29
2a
4c
48
00
00
ENDCHAR
STARTCHAR 00da
ENCODING 218
SWIDTH 823 0
DWIDTH 8 0
BBX 8 16 0 -2
BITMAP
00
00
20
20
20
20
20
20
20
20
21
22
2c
30
00
00
ENDCHAR
STARTCHAR 00db
ENCODING 219
SWIDTH 823 0
DWIDTH 8 0
BBX 8 16 0 -2
BITMAP
00
00
00
00
7e
42
42
42
42
42
42
42
7e
42
00
00
ENDCHAR
STARTCHAR 00dc
ENCODING 220
SWIDTH 823 0
DWIDTH 8 0
BBX 8 16 0 -2
BITMAP
00
00
00
7e
42
42
42
02
02
02
02
04
04
08
10
00
ENDCHAR
STARTCHAR 00dd
ENCODING 221
SWIDTH 823 0
DWIDTH 8 0
BBX 8 16 0 -2
BITMAP
00
00
00
40
20
11
01
01
01
01
02
02
04
08
30
00
ENDCHAR
STARTCHAR 00de
ENCODING 222
SWIDTH 823 0
DWIDTH 8 0
BBX 8 16 0 -2
BITMAP
00
10
48
24
10
00
00
00
00
00
00
00
00
00
00
00
ENDCHAR
STARTCHAR 00df
ENCODING 223
SWIDTH 823 0
DWIDTH 8 0
BBX 8 16 0 -2
BITMAP
00
30
48
48
30
00
00
00
00
00
00
00
00
00
00
00
ENDCHAR
STARTCHAR 00e0
ENCODING 224
SWIDTH 823 0
DWIDTH 8 0
BBX 8 16 0 -2
BITMAP
00
00
00
00
00
00
00
00
00
00
00
00
00
00
00
00
ENDCHAR
STARTCHAR 00e1
ENCODING 225
SWIDTH 823 0
DWIDTH 8 0
BBX 8 16 0 -2
BITMAP
00
00
00
00
00
00
00
00
00
00
00
00
00
00
00
00
ENDCHAR
STARTCHAR 00e2
ENCODING 226
SWIDTH 823 0
DWIDTH 8 0
BBX 8 16 0 -2
BITMAP
00
00
00
00
00
00
00
00
00
00
00
00
00
00
00
00
ENDCHAR
STARTCHAR 00e3
ENCODING 227
SWIDTH 823 0
DWIDTH 8 0
BBX 8 16 0 -2
BITMAP
00
00
00
00
00
00
00
00
00
00
00
00
00
00
00
00
ENDCHAR
STARTCHAR 00e4
ENCODING 228
SWIDTH 823 0
DWIDTH 8 0
BBX 8 16 0 -2
BITMAP
00
00
00
00
00
00
00
00
00
00
00
00
00
00
00
00
ENDCHAR
STARTCHAR 00e5
ENCODING 229
SWIDTH 823 0
DWIDTH 8 0
BBX 8 16 0 -2
BITMAP
00
00
00
00
00
00
00
00
00
00
00
00
00
00
00
00
ENDCHAR
STARTCHAR 00e6
ENCODING 230
SWIDTH 823 0
DWIDTH 8 0
BBX 8 16 0 -2
BITMAP
00
00
00
00
00
00
00
00
00
00
00
00
00
00
00
00
ENDCHAR
STARTCHAR 00e7
ENCODING 231
SWIDTH 823 0
DWIDTH 8 0
BBX 8 16 0 -2
BITMAP
00
00
00
00
00
00
00
00
00
00
00
00
00
00
00
00
ENDCHAR
STARTCHAR 00e8
ENCODING 232
SWIDTH 823 0
DWIDTH 8 0
BBX 8 16 0 -2
BITMAP
00
00
00
00
00
00
00
00
00
00
00
00
00
00
00
00
ENDCHAR
STARTCHAR 00e9
ENCODING 233
SWIDTH 823 0
DWIDTH 8 0
BBX 8 16 0 -2
BITMAP
00
00
00
00
00
00
00
00
00
00
00
00
00
00
00
00
ENDCHAR
STARTCHAR 00ea
ENCODING 234
SWIDTH 823 0
DWIDTH 8 0
BBX 8 16 0 -2
BITMAP
00
00
00
00
00
00
00
00
00
00
00
00
00
00
00
00
ENDCHAR
STARTCHAR 00eb
ENCODING 235
SWIDTH 823 0
DWIDTH 8 0
BBX 8 16 0 -2
BITMAP
00
00
00
00
00
00
00
00
00
00
00
00
00
00
00
00
ENDCHAR
STARTCHAR 00ec
ENCODING 236
SWIDTH 823 0
DWIDTH 8 0
BBX 8 16 0 -2
BITMAP
00
00
00
00
00
00
00
00
00
00
00
00
00
00
00
00
ENDCHAR
STARTCHAR 00ed
ENCODING 237
SWIDTH 823 0
DWIDTH 8 0
BBX 8 16 0 -2
BITMAP
00
00
00
00
00
00
00
00
00
00
00
00
00
00
00
00
ENDCHAR
STARTCHAR 00ee
ENCODING 238
SWIDTH 823 0
DWIDTH 8 0
BBX 8 16 0 -2
BITMAP
00
00
00
00
00
00
00
00
00
00
00
00
00
00
00
00
ENDCHAR
STARTCHAR 00ef
ENCODING 239
SWIDTH 823 0
DWIDTH 8 0
BBX 8 16 0 -2
BITMAP
00
00
00
00
00
00
00
00
00
00
00
00
00
00
00
00
ENDCHAR
STARTCHAR 00f0
ENCODING 240
SWIDTH 823 0
DWIDTH 8 0
BBX 8 16 0 -2
BITMAP
00
00
00
00
00
00
00
00
00
00
00
00
00
00
00
00
ENDCHAR
STARTCHAR 00f1
ENCODING 241
SWIDTH 823 0
DWIDTH 8 0
BBX 8 16 0 -2
BITMAP
00
00
00
00
00
00
00
00
00
00
00
00
00
00
00
00
ENDCHAR
STARTCHAR 00f2
ENCODING 242
SWIDTH 823 0
DWIDTH 8 0
BBX 8 16 0 -2
BITMAP
00
00
00
00
00
00
00
00
00
00
00
00
00
00
00
00
ENDCHAR
STARTCHAR 00f3
ENCODING 243
SWIDTH 823 0
DWIDTH 8 0
BBX 8 16 0 -2
BITMAP
00
00
00
00
00
00
00
00
00
00
00
00
00
00
00
00
ENDCHAR
STARTCHAR 00f4
ENCODING 244
SWIDTH 823 0
DWIDTH 8 0
BBX 8 16 0 -2
BITMAP
00
00
00
00
00
00
00
00
00
00
00
00
00
00
00
00
ENDCHAR
STARTCHAR 00f5
ENCODING 245
SWIDTH 823 0
DWIDTH 8 0
BBX 8 16 0 -2
BITMAP
00
00
00
00
00
00
00
00
00
00
00
00
00
00
00
00
ENDCHAR
STARTCHAR 00f6
ENCODING 246
SWIDTH 823 0
DWIDTH 8 0
BBX 8 16 0 -2
BITMAP
00
00
00
00
00
00
00
00
00
00
00
00
00
00
00
00
ENDCHAR
STARTCHAR 00f7
ENCODING 247
SWIDTH 823 0
DWIDTH 8 0
BBX 8 16 0 -2
BITMAP
00
00
00
00
00
00
00
00
00
00
00
00
00
00
00
00
ENDCHAR
STARTCHAR 00f8
ENCODING 248
SWIDTH 823 0
DWIDTH 8 0
BBX 8 16 0 -2
BITMAP
00
00
00
00
00
00
00
00
00
00
00
00
00
00
00
00
ENDCHAR
STARTCHAR 00f9
ENCODING 249
SWIDTH 823 0
DWIDTH 8 0
BBX 8 16 0 -2
BITMAP
00
00
00
00
00
00
00
00
00
00
00
00
00
00
00
00
ENDCHAR
STARTCHAR 00fa
ENCODING 250
SWIDTH 823 0
DWIDTH 8 0
BBX 8 16 0 -2
BITMAP
00
00
00
00
00
00
00
00
00
00
00
00
00
00
00
00
ENDCHAR
STARTCHAR 00fb
ENCODING 251
SWIDTH 823 0
DWIDTH 8 0
BBX 8 16 0 -2
BITMAP
00
00
00
00
00
00
00
00
00
00
00
00
00
00
00
00
ENDCHAR
STARTCHAR 00fc
ENCODING 252
SWIDTH 823 0
DWIDTH 8 0
BBX 8 16 0 -2
BITMAP
00
00
00
00
00
00
00
00
00
00
00
00
00
00
00
00
ENDCHAR
STARTCHAR 00fd
ENCODING 253
SWIDTH 823 0
DWIDTH 8 0
BBX 8 16 0 -2
BITMAP
00
00
00
00
00
00
00
00
00
00
00
00
00
00
00
00
ENDCHAR
STARTCHAR 00fe
ENCODING 254
SWIDTH 823 0
DWIDTH 8 0
BBX 8 16 0 -2
BITMAP
00
00
00
00
00
00
00
00
00
00
00
00
00
00
00
00
ENDCHAR
STARTCHAR 00ff
ENCODING 255
SWIDTH 823 0
DWIDTH 8 0
BBX 8 16 0 -2
BITMAP
00
00
40
20
20
10
10
08
08
04
04
02
02
01
00
00
ENDCHAR
ENDFONT
